<svg xmlns="http://www.w3.org/2000/svg" viewBox="0 0 512 512" role="img" aria-label="Sports Scoreboard Logo">
  <defs>
    <linearGradient id="bg" x1="0" y1="0" x2="1" y2="1">
      <stop offset="0%" stop-color="#0f172a"/>
      <stop offset="100%" stop-color="#111827"/>
    </linearGradient>
  </defs>
  <rect x="32" y="32" width="448" height="448" rx="64" fill="url(#bg)"/>
  <rect x="36" y="36" width="440" height="440" rx="60" fill="none" stroke="#1f2937" stroke-width="8"/>

  <!-- Football -->
  <g transform="translate(132,132)">
    <ellipse cx="0" cy="0" rx="68" ry="42" fill="#8B5E3C" stroke="#5e3e25" stroke-width="6"/>
    <rect x="-16" y="-6" width="32" height="12" rx="2" fill="#ffffff"/>
    <line x1="-10" y1="0" x2="10" y2="0" stroke="#0f172a" stroke-width="3"/>
    <line x1="-5" y1="-6" x2="-5" y2="6" stroke="#0f172a" stroke-width="3"/>
    <line x1="0" y1="-6" x2="0" y2="6" stroke="#0f172a" stroke-width="3"/>
    <line x1="5" y1="-6" x2="5" y2="6" stroke="#0f172a" stroke-width="3"/>
  </g>

  <!-- Soccer ball -->
  <g transform="translate(360,144)">
    <circle cx="0" cy="0" r="44" fill="#ffffff" stroke="#d1d5db" stroke-width="6"/>
    <path d="M0,-14 L12,-4 L8,12 L-8,12 L-12,-4 Z" fill="#9ca3af"/>
  </g>

  <!-- Baseball -->
  <g transform="translate(256,360)">
    <circle cx="0" cy="0" r="52" fill="#ffffff" stroke="#d1d5db" stroke-width="6"/>
    <path d="M -36 -20 C -12 -30 12 -30 36 -20" fill="none" stroke="#ef4444" stroke-width="6" stroke-linecap="round"/>
    <path d="M -36 20 C -12 30 12 30 36 20" fill="none" stroke="#ef4444" stroke-width="6" stroke-linecap="round"/>
  </g>
</svg>
